# xmcd
# Copyright (C) 1995-1998 Ti Kan
#
# Track frame offsets:
#       150
#       13728
#       29566
#       47220
#       65446
#       87674
#       105647
#       123520
#       140332
#       156630
#
# Disc length: 2317 seconds
#
# Revision: 0
# Processed by: cddbd v1.5.2PL0 Copyright (c) Steve Scherf et al.
# Submitted via: CD-Transfer v1.0
#
DISCID=91090b0a
DTITLE=Only Tu - D. Puhariæ, R. Slama
DYEAR=10
DGENRE=
TTITLE0=Frustracija
TTITLE1=Lampa
TTITLE2=Border
TTITLE3=Romantizam
TTITLE4=Koraèa
TTITLE5=Kljuè
TTITLE6=Dovraga
TTITLE7=Super Kit
TTITLE8=Zx Spectrum
TTITLE9=Ljuti, Ljuti Ja
EXTD=
EXTT0=
EXTT1=
EXTT2=
EXTT3=
EXTT4=
EXTT5=
EXTT6=
EXTT7=
EXTT8=
EXTT9=
PLAYORDER=
